<?xml version="1.0" standalone="no"?>
<!DOCTYPE svg PUBLIC "-//W3C//DTD SVG 20010904//EN"
 "http://www.w3.org/TR/2001/REC-SVG-20010904/DTD/svg10.dtd">
<svg version="1.0" xmlns="http://www.w3.org/2000/svg"
 width="300.000000pt" height="300.000000pt" viewBox="0 0 300.000000 300.000000"
 preserveAspectRatio="xMidYMid meet">
<metadata>
Created by potrace 1.14, written by Peter Selinger 2001-2017
</metadata>
<g transform="translate(0.000000,300.000000) scale(0.100000,-0.100000)"
fill="#000000" stroke="none">
<path d="M812 2614 c-17 -12 -22 -25 -22 -61 0 -45 55 -228 85 -281 15 -26 15
-25 9 31 -7 67 4 87 50 87 32 0 77 -26 153 -88 l43 -34 -108 -53 c-124 -62
-213 -126 -295 -214 -108 -117 -183 -250 -228 -402 -31 -106 -38 -332 -14
-452 l17 -87 -112 -117 c-184 -192 -285 -340 -278 -406 3 -31 4 -32 58 -35 48
-2 66 3 145 42 126 62 132 68 64 61 -99 -12 -102 36 -12 172 46 69 152 201
163 202 3 1 13 -20 24 -45 28 -69 106 -182 175 -257 117 -125 273 -220 448
-274 82 -25 100 -27 273 -27 173 0 191 2 274 28 245 75 457 241 583 458 l45
77 66 6 c221 20 372 53 440 95 48 29 45 70 -8 109 -55 39 -274 109 -286 90 -3
-5 1 -9 9 -9 7 0 31 -15 53 -34 43 -38 42 -52 -7 -88 -23 -17 -218 -72 -226
-64 -2 2 3 30 12 62 23 81 31 307 15 398 -56 315 -259 579 -552 715 -76 36
-197 75 -206 67 -2 -2 35 -22 81 -44 87 -41 106 -57 90 -73 -18 -18 -114 21
-154 61 -45 46 -119 64 -146 37 -26 -26 -3 -41 98 -61 19 -4 29 -15 35 -38 9
-32 12 -33 53 -30 32 3 48 -1 64 -16 12 -12 34 -25 49 -31 25 -9 26 -12 15
-40 -14 -37 0 -54 20 -25 12 19 17 20 38 10 29 -13 32 -26 7 -26 -9 0 -22 -10
-27 -22 -6 -14 -23 -25 -43 -29 -46 -9 -70 -34 -87 -91 -8 -27 -28 -68 -45
-91 -35 -48 -37 -65 -9 -101 11 -14 17 -26 12 -26 -4 0 -21 21 -37 48 -53 88
-215 316 -306 432 l-91 115 37 8 c21 4 43 12 50 18 6 5 31 16 55 24 43 15 43
15 -51 10 -52 -2 -104 -7 -115 -9 -15 -4 -34 11 -80 66 -70 83 -215 212 -265
238 -57 28 -74 31 -98 14z m450 -486 c167 -186 334 -401 323 -418 -3 -5 -18
-10 -33 -10 -36 0 -147 -53 -155 -75 -21 -53 8 -126 57 -145 28 -10 64 4 88
35 25 32 48 32 48 1 0 -44 20 -80 78 -138 38 -39 67 -60 89 -64 37 -7 52 -21
30 -30 -19 -7 -76 17 -135 57 -55 37 -170 76 -250 85 -80 9 -127 36 -162 92
-16 26 -30 53 -30 59 0 7 44 42 97 78 54 36 92 65 85 65 -14 0 -128 -57 -177
-88 l-30 -19 -36 38 c-41 45 -85 54 -74 17 10 -36 -50 37 -80 97 -22 44 -24
57 -16 103 6 40 4 74 -9 130 -18 87 -27 93 -91 68 -46 -18 -49 -19 -49 -7 0
10 98 84 141 107 17 8 63 18 102 21 40 3 79 9 87 14 8 5 18 9 22 9 3 0 40 -37
80 -82z m-129 -551 c-6 -10 -25 10 -45 48 -7 14 -1 11 20 -9 17 -16 29 -34 25
-39z m55 -51 c-3 -15 -5 -16 -23 -2 -17 13 -18 17 -5 25 18 12 33 -1 28 -23z
m622 4 c0 -5 -2 -10 -4 -10 -3 0 -8 5 -11 10 -3 6 -1 10 4 10 6 0 11 -4 11
-10z m227 -171 c12 -4 34 -26 48 -49 18 -29 32 -40 49 -40 41 0 56 -11 81 -60
25 -49 67 -90 91 -90 20 0 17 -44 -4 -70 -16 -20 -32 -23 -133 -31 -63 -4
-180 -8 -261 -8 -166 -1 -168 0 -168 77 0 30 8 50 34 83 25 30 37 58 41 93 4
28 11 57 15 65 8 16 24 -9 118 -179 35 -63 60 -104 57 -90 -13 46 -58 154 -96
232 -27 54 -35 78 -26 82 15 7 125 -4 154 -15z m193 -429 c-4 -45 -213 -263
-298 -311 -31 -17 -91 -55 -132 -84 -41 -28 -91 -60 -110 -70 l-34 -18 29 36
c17 19 53 62 82 96 115 135 130 196 75 295 -18 30 -32 58 -32 61 0 2 95 4 210
2 116 -1 210 -4 210 -7z"/>
</g>
</svg>
